<?xml version="1.0" encoding="utf-8"?>
<!-- Generator: Adobe Illustrator 24.0.3, SVG Export Plug-In . SVG Version: 6.00 Build 0)  -->
<svg version="1.1" id="bike" focusable="false" xmlns="http://www.w3.org/2000/svg" xmlns:xlink="http://www.w3.org/1999/xlink"
	 x="0px" y="0px" viewBox="0 0 640 512" style="enable-background:new 0 0 640 512;" xml:space="preserve">
<path id="unite" d="M400,96c26.5,0,48-21.5,48-48S426.5,0,400,0s-48,21.5-48,48S373.5,96,400,96z M396,217c5.7,4.5,12.7,7,20,7h64
	c17.7,0,32-14.3,32-32s-14.3-32-32-32h-52.8L356,103c-12-9.6-29.1-9.3-40.8,0.7l-112,96c-13.4,11.5-15,31.7-3.5,45.1
	c1.9,2.2,4.1,4.2,6.5,5.8l81.7,54.5V416c0,17.7,14.3,32,32,32s32-14.3,32-32V288c0-10.7-5.3-20.7-14.2-26.6l-41.4-27.6l58.2-49.9
	L396,217z M512,256c-70.7,0-128,57.3-128,128s57.3,128,128,128s128-57.3,128-128S582.7,256,512,256z M512,448c-35.3,0-64-28.7-64-64
	s28.7-64,64-64s64,28.7,64,64S547.3,448,512,448z M128,256C57.3,256,0,313.3,0,384s57.3,128,128,128s128-57.3,128-128
	S198.7,256,128,256z M128,448c-35.3,0-64-28.7-64-64s28.7-64,64-64s64,28.7,64,64S163.3,448,128,448z"/>
</svg>
