<?xml version="1.0" encoding="utf-8"?>
<!-- Generator: Adobe Illustrator 24.0.3, SVG Export Plug-In . SVG Version: 6.00 Build 0)  -->
<svg version="1.1" id="golf" focusable="false" xmlns="http://www.w3.org/2000/svg" xmlns:xlink="http://www.w3.org/1999/xlink"
	 x="0px" y="0px" viewBox="0 0 416 512" style="enable-background:new 0 0 416 512;" xml:space="preserve">
<path id="unite" d="M96,416h224c0,17.7-14.3,32-32,32h-16c-17.7,0-32,14.3-32,32v20c0,6.6-5.4,12-12,12h-40c-6.6,0-12-5.4-12-12v-20
	c0-17.7-14.3-32-32-32h-16C110.3,448,96,433.7,96,416z M416,208c0,74.2-39,139.2-97.5,176h-221C39,347.2,0,282.2,0,208
	C0,93.1,93.1,0,208,0S416,93.1,416,208z M235.9,251.9c18.3,0,33.1-14.8,33.1-33.1c0-14.4-9.3-26.3-22.1-30.9
	c9.6,26.8-15.6,51.3-41.9,41.9C209.6,242.6,221.5,251.9,235.9,251.9z M285,298.8c0-14.4-9.3-26.3-22.1-30.9
	c9.6,26.8-15.6,51.3-41.9,41.9c4.6,12.8,16.5,22.1,30.9,22.1C270.2,331.9,285,317,285,298.8z M349,234.8c0-14.4-9.3-26.3-22.1-30.9
	c9.6,26.8-15.6,51.3-41.9,41.9c4.6,12.8,16.5,22.1,30.9,22.1C334.2,267.9,349,253,349,234.8z"/>
</svg>
