<?xml version="1.0" encoding="utf-8"?>
<!-- Generator: Adobe Illustrator 24.0.3, SVG Export Plug-In . SVG Version: 6.00 Build 0)  -->
<svg version="1.1" id="volleyball" focusable="false"
	 xmlns="http://www.w3.org/2000/svg" xmlns:xlink="http://www.w3.org/1999/xlink" x="0px" y="0px" viewBox="0 0 512 512"
	 style="enable-background:new 0 0 512 512;" xml:space="preserve">
<path id="unite" d="M231.4,243.5c-0.8-36.4-8.5-72.2-22.7-105.7C117.9,180.2,51.2,260.2,28.4,354.6c13.3,30.6,32.7,58.2,56.9,81.1
	C108.3,355.6,160.4,287.1,231.4,243.5L231.4,243.5z M194.5,109.1c-15.2-26.5-34.6-50.4-57.4-70.7c-91,49.8-144.8,152.9-125,262.2
	C45.5,217.5,110.5,148.6,194.5,109.1L194.5,109.1z M382.1,274.2c8.6-99.8-27.3-197.5-97.5-264.4c-14.7-1.7-51.6-5.5-98.9,8.5
	c57.9,60,91.2,139.4,93.5,222.7C311.1,258.5,346,269.8,382.1,274.2z M257.4,283.7c-31.1,18.9-58.3,43.5-80.2,72.6
	c82,57.3,184.5,75.1,277.5,47.8c20-26.8,34.4-57.4,42.2-89.9c-26.4,6.7-53.6,10.2-80.9,10.4C361.4,324.5,307.1,310.5,257.4,283.7z
	 M159.1,383.4c-15.2,26-25.7,54.4-32.1,84.2c91,55.8,207.6,46.9,289-22.1C303.1,461.6,212.7,420.7,159.1,383.4L159.1,383.4z
	 M339.4,22.8C394.7,93.2,421.9,184,414,276.4c30.5,0.1,60.7-4.7,89.7-14.2c0-2,0.3-4,0.3-6C504,148.4,435.3,57.1,339.4,22.8
	L339.4,22.8z"/>
</svg>
