<?xml version="1.0" encoding="utf-8"?>
<!-- Generator: Adobe Illustrator 24.0.3, SVG Export Plug-In . SVG Version: 6.00 Build 0)  -->
<svg version="1.1" id="Basketball" focusable="false"
	 xmlns="http://www.w3.org/2000/svg" xmlns:xlink="http://www.w3.org/1999/xlink" x="0px" y="0px" viewBox="0 0 496 512"
	 style="enable-background:new 0 0 496 512;" xml:space="preserve">
<path id="unite" d="M212.3,10.3c-43.8,6.3-86.2,24.1-122.2,53.8l77.4,77.4C195.3,105.7,210.8,60.3,212.3,10.3z M248,222L405.9,64.1
	c-42.4-35-93.6-53.5-145.5-56.1c-1.2,63.9-21.5,122.3-58.7,167.7L248,222z M56.1,98.1c-29.7,36-47.5,78.4-53.8,122.2
	c50-1.5,95.5-17,131.2-44.8L56.1,98.1z M328.3,302.3c45.3-37.1,103.7-57.4,167.7-58.7c-2.6-51.9-21.1-103.1-56.1-145.5L282,256
	L328.3,302.3L328.3,302.3z M248,290L90.1,447.9c42.4,34.9,93.6,53.5,145.5,56.1c1.3-64,21.6-122.4,58.7-167.7L248,290z M439.9,413.9
	c29.7-36,47.5-78.4,53.8-122.2c-50.1,1.6-95.5,17.1-131.2,44.8L439.9,413.9z M167.7,209.7C122.3,246.9,63.9,267.3,0,268.4
	c2.6,51.9,21.1,103.1,56.1,145.5L214,256L167.7,209.7z M283.7,501.7c43.8-6.3,86.2-24.1,122.2-53.8l-77.4-77.4
	C300.8,406.2,285.3,451.7,283.7,501.7L283.7,501.7z"/>
</svg>
