<?xml version="1.0" encoding="utf-8"?>
<!-- Generator: Adobe Illustrator 24.0.3, SVG Export Plug-In . SVG Version: 6.00 Build 0)  -->
<svg version="1.1" id="bowling" focusable="false" xmlns="http://www.w3.org/2000/svg" xmlns:xlink="http://www.w3.org/1999/xlink"
	 x="0px" y="0px" viewBox="0 0 496 512" style="enable-background:new 0 0 496 512;" xml:space="preserve">
<path id="unite" d="M248,8C111,8,0,119,0,256s111,248,248,248s248-111,248-248S385,8,248,8z M120,192c-17.7,0-32-14.3-32-32
	s14.3-32,32-32s32,14.3,32,32S137.7,192,120,192z M184,96c0-17.7,14.3-32,32-32s32,14.3,32,32s-14.3,32-32,32S184,113.7,184,96z
	 M232,240c-17.7,0-32-14.3-32-32s14.3-32,32-32s32,14.3,32,32S249.7,240,232,240z"/>
</svg>
