<?xml version="1.0" encoding="utf-8"?>
<!-- Generator: Adobe Illustrator 24.0.3, SVG Export Plug-In . SVG Version: 6.00 Build 0)  -->
<svg version="1.1" id="football" focusable="false" xmlns="http://www.w3.org/2000/svg" xmlns:xlink="http://www.w3.org/1999/xlink"
	 x="0px" y="0px" viewBox="0 0 496 512" style="enable-background:new 0 0 496 512;" xml:space="preserve">
<path id="unite" d="M481.5,60.3c-4.8-18.2-19.1-32.5-37.3-37.4C420.3,16.5,383,8.9,339.4,8L496,164.8
	C495.2,121.3,487.8,84.2,481.5,60.3z M14.5,451.7c4.8,18.2,19.1,32.5,37.3,37.4c23.9,6.4,61.2,14,104.8,14.9L0,347.2
	C0.8,390.7,8.2,427.8,14.5,451.7L14.5,451.7z M4.2,283.4L220.4,500c132.5-19.4,248.8-118.7,271.5-271.4L275.6,12
	C143.1,31.4,26.8,130.7,4.2,283.4z M321.5,159.8c3.1-3.1,8.2-3.1,11.3,0l11.3,11.3c3.1,3.1,3.1,8.2,0,11.3l-28.3,28.3l28.3,28.3
	c3.1,3.1,3.1,8.2,0,11.3l-11.3,11.3c-3.1,3.1-8.2,3.1-11.3,0l-28.3-28.3L270.6,256l28.3,28.3c3.1,3.1,3.1,8.2,0,11.3l-11.3,11.3
	c-3.1,3.1-8.2,3.1-11.3,0L248,278.6l-22.6,22.6l28.3,28.3c3.1,3.1,3.1,8.2,0,11.3l-11.3,11.3c-3.1,3.1-8.2,3.1-11.3,0l-28.3-28.3
	l-28.3,28.3c-3.1,3.1-8.2,3.1-11.3,0l-11.3-11.3c-3.1-3.1-3.1-8.2,0-11.3l28.3-28.3L151.9,273c-3.1-3.1-3.1-8.2,0-11.3l11.3-11.3
	c3.1-3.1,8.2-3.1,11.3,0l28.3,28.3l22.6-22.6l-28.3-28.3c-3.1-3.1-3.1-8.2,0-11.3l11.3-11.3c3.1-3.1,8.2-3.1,11.3,0l28.3,28.3
	l22.6-22.6l-28.3-28.3c-3.1-3.1-3.1-8.2,0-11.3l11.3-11.3c3.1-3.1,8.2-3.1,11.3,0l28.3,28.3L321.5,159.8L321.5,159.8z"/>
</svg>
