<?xml version="1.0" encoding="utf-8"?>
<!-- Generator: Adobe Illustrator 24.0.3, SVG Export Plug-In . SVG Version: 6.00 Build 0)  -->
<svg version="1.1" id="pong" focusable="false" xmlns="http://www.w3.org/2000/svg" xmlns:xlink="http://www.w3.org/1999/xlink"
	 x="0px" y="0px" viewBox="0 0 512 512" style="enable-background:new 0 0 512 512;" xml:space="preserve">
<path id="unite" d="M496.2,296.5C527.7,218.7,512,126.2,449,63.1C365.1-21,229-21,145.1,63.1l-56,56.1l211.5,211.5
	C346.7,268.6,432.1,253.3,496.2,296.5z M278.3,376.2L57.9,155.9c-27.3,45.3-21.7,105,17.3,144.1l34.5,34.6L6.7,424
	c-8.6,7.5-9.1,20.7-1,28.8l53.4,53.5c8,8.1,21.2,7.6,28.7-1L177.1,402l35.7,35.7c19.7,19.7,44.6,30.5,70.3,33.3
	c-7.1-17-11-35.6-11-55.1C272,402.1,274.6,388.9,278.3,376.2L278.3,376.2z M416,320c-53,0-96,43-96,96s43,96,96,96s96-43,96-96
	S469,320,416,320z"/>
</svg>
