<?xml version="1.0" encoding="utf-8"?>
<!-- Generator: Adobe Illustrator 24.0.3, SVG Export Plug-In . SVG Version: 6.00 Build 0)  -->
<svg version="1.1" id="soccerball" focusable="false"
	 xmlns="http://www.w3.org/2000/svg" xmlns:xlink="http://www.w3.org/1999/xlink" x="0px" y="0px" viewBox="0 0 496 512"
	 style="enable-background:new 0 0 496 512;" xml:space="preserve">
<path id="unite" d="M483.8,179.4C449.8,74.6,352.6,8,248.1,8c-25.4,0-51.2,3.9-76.7,12.2C41.2,62.5-30.1,202.4,12.2,332.6
	C46.2,437.4,143.4,504,247.9,504c25.4,0,51.2-3.9,76.7-12.2C454.8,449.5,526.1,309.6,483.8,179.4z M409.3,373.1l-52.2,6.4
	l-43.7-60.9l24.4-75.2l71.1-22.1l38.9,36.4c-0.2,30.7-7.4,61.1-21.7,89.2C421.4,356.2,415.4,364.7,409.3,373.1L409.3,373.1z
	 M409.3,137.7l-10.4,53.1l-70.7,22L264,166.3V92.5l47.4-26.2C350.6,79.3,384.8,104.3,409.3,137.7L409.3,137.7z M184.9,66.4L232,92.5
	v73.8l-64.2,46.5l-70.6-22l-10.1-52.5C111.4,104.9,145,79.7,184.9,66.4L184.9,66.4z M139,379.5L85.9,373
	c-14.4-20.1-37.3-59.6-37.8-115.3l39-36.4l71.1,22.2l24.3,74.3L139,379.5L139,379.5z M187.2,446.5l-22.4-48.1l43.6-61.7H287
	l44.3,61.7l-22.4,48.1C302.7,448.3,251.3,466.9,187.2,446.5z"/>
</svg>
